<svg id="Icons" height="512" viewBox="0 0 74 74" width="512" xmlns="http://www.w3.org/2000/svg"><path d="m71 21h-68a1 1 0 0 1 -.447-1.895l34-17a1 1 0 0 1 .894 0l34 17a1 1 0 0 1 -.447 1.895zm-63.764-2h59.528l-29.764-14.882z"/><path d="m62.5 28c-5.238 0-9.5-3.589-9.5-8a1 1 0 0 1 2 0c0 3.309 3.364 6 7.5 6s7.5-2.691 7.5-6a1 1 0 0 1 2 0c0 4.411-4.262 8-9.5 8z"/><path d="m45.5 28c-5.238 0-9.5-3.589-9.5-8a1 1 0 0 1 2 0c0 3.309 3.364 6 7.5 6s7.5-2.691 7.5-6a1 1 0 0 1 2 0c0 4.411-4.262 8-9.5 8z"/><path d="m28.5 28c-5.238 0-9.5-3.589-9.5-8a1 1 0 0 1 2 0c0 3.309 3.364 6 7.5 6s7.5-2.691 7.5-6a1 1 0 0 1 2 0c0 4.411-4.262 8-9.5 8z"/><path d="m11.5 28c-5.238 0-9.5-3.589-9.5-8a1 1 0 0 1 2 0c0 3.309 3.364 6 7.5 6 .079 0 .152 0 .232-.006 4.035-.118 7.268-2.805 7.268-5.994a1 1 0 0 1 2 0c0 4.333-4.02 7.842-9.151 7.99-.081.01-.208.01-.349.01z"/><path d="m71 44.14a1 1 0 0 1 -1-1v-2.94a1 1 0 0 1 2 0v2.94a1 1 0 0 1 -1 1z"/><path d="m71 72h-6.5a1 1 0 0 1 -1-1v-16l-2.317-27.927a1 1 0 0 1 1.994-.165l2.323 28.009v15.083h4.5v-9.92a1 1 0 1 1 2 0v10.92a1 1 0 0 1 -1 1z"/><path d="m71 54.08a1 1 0 0 1 -1-1v-2.94a1 1 0 0 1 2 0v2.94a1 1 0 0 1 -1 1z"/><path d="m71 34.2a1 1 0 0 1 -1-1v-13.2a1 1 0 0 1 2 0v13.2a1 1 0 0 1 -1 1z"/><path d="m9.5 72h-6.5a1 1 0 0 1 -1-1v-51a1 1 0 0 1 2 0v50h4.5v-15l2.323-28.092a1 1 0 0 1 1.994.165l-2.317 28.01v15.917a1 1 0 0 1 -1 1z"/></svg>