<?xml version="1.0" encoding="iso-8859-1"?>
<!-- Generator: Adobe Illustrator 19.0.0, SVG Export Plug-In . SVG Version: 6.00 Build 0)  -->
<svg version="1.1" id="Capa_1" xmlns="http://www.w3.org/2000/svg" xmlns:xlink="http://www.w3.org/1999/xlink" x="0px" y="0px"
	 viewBox="0 0 512 512" style="enable-background:new 0 0 512 512;" xml:space="preserve">
<g>
	<g>
		<path d="M418.189,15.13C401.862,5.374,380.076,0,356.843,0c-15.771,0-30.598,6.142-41.752,17.296
			c-4.803,4.803-8.754,10.428-11.651,16.541l-200.672-9.652c-0.874-0.068-1.737-0.102-2.659-0.105
			c-9.347,0.003-18.132,3.643-24.738,10.25c-6.609,6.609-10.249,15.396-10.249,24.741c0,19.293,15.696,34.989,34.96,34.989
			c0.867-0.005,1.739-0.03,2.671-0.101l200.655-9.651c9.613,20.519,30.213,33.835,53.435,33.835
			c30.951,0,59.095-9.665,75.284-25.854c9.647-9.648,14.748-21.134,14.751-33.218C446.878,41.795,436.69,26.19,418.189,15.13z
			 M417.985,78.147c-12.521,12.521-35.378,19.996-61.142,19.996c-17.117,0-32.075-10.925-37.222-27.186
			c-1.321-4.172-5.19-6.982-9.53-6.982c-0.161,0-0.322,0.004-0.484,0.012L101.647,73.99c-0.104,0.005-0.208,0.011-0.312,0.02
			c-0.442,0.035-0.82,0.053-1.224,0.051c-8.266,0-14.99-6.724-14.99-14.99c0.001-4.004,1.561-7.768,4.393-10.6
			c2.83-2.831,6.596-4.39,10.569-4.392c0.417,0.001,0.815,0.018,1.216,0.051c0.116,0.01,0.232,0.017,0.349,0.023L309.61,54.157
			c4.517,0.215,8.635-2.636,10.01-6.956c1.878-5.901,5.202-11.353,9.613-15.763C336.609,24.062,346.415,20,356.843,20
			c19.673,0,37.815,4.368,51.085,12.297c12.22,7.306,18.95,16.814,18.95,26.772C426.877,65.733,423.801,72.33,417.985,78.147z"/>
	</g>
</g>
<g>
	<g>
		<path d="M401.638,121.65c-0.859,0.007-1.738,0.03-2.672,0.101l-200.661,9.652c-9.463-20.131-29.65-33.429-52.4-33.817
			c-0.029,0-0.057,0.003-0.086,0.003c-0.029,0-0.056-0.004-0.085-0.004H85.402c-5.523,0-10,4.477-10,10s4.477,10,10,10h50.334
			v29.053H85.402c-5.523,0-10,4.477-10,10c0,5.523,4.477,10,10,10h50.334v29.052H85.402v-0.001c-5.523,0-10,4.477-10,10
			c0,5.523,4.477,10,10,10h60.334c0.057,0,0.114,0,0.171-0.001c15.384-0.263,29.846-6.397,40.723-17.273
			c4.802-4.803,8.753-10.427,11.65-16.542l200.674,9.653c0.884,0.068,1.748,0.102,2.656,0.104
			c9.347-0.003,18.132-3.643,24.737-10.249c6.609-6.608,10.25-15.395,10.25-24.741C436.597,137.347,420.901,121.65,401.638,121.65z
			 M412.207,167.238c-3.122,3.121-7.373,4.705-11.793,4.34c-0.113-0.009-0.228-0.017-0.341-0.022L192.11,161.553
			c-4.525-0.221-8.635,2.636-10.009,6.956c-1.879,5.902-5.203,11.354-9.613,15.763c-4.727,4.726-10.477,8.098-16.752,9.902V119.1
			c12.337,3.545,22.365,13.019,26.363,25.652c1.369,4.327,5.489,7.192,10.015,6.971l207.959-10.003
			c0.104-0.005,0.207-0.011,0.311-0.02c0.444-0.035,0.841-0.05,1.226-0.051c8.265,0,14.989,6.725,14.989,14.99
			C416.599,160.643,415.039,164.406,412.207,167.238z"/>
	</g>
</g>
<g>
	<g>
		<path d="M483,363.719h-7.069l-19.615-83.881c-6.115-26.147-29.14-44.408-55.992-44.408H111.675
			c-26.852,0-49.877,18.261-55.992,44.409l-19.615,83.88H29c-5.523,0-10,4.477-10,10s4.477,10,10,10h7.075l19.609,83.873
			C61.799,493.739,84.823,512,111.675,512h288.649c26.853,0,49.877-18.261,55.992-44.408l19.62-83.874H483c5.522,0,10-4.477,10-10
			C493,368.196,488.522,363.719,483,363.719z M60.371,347.625h303.086c5.522,0,10-4.477,10-10s-4.478-10-10-10H65.048l10.11-43.232
			c3.988-17.053,19.004-28.963,36.517-28.963h288.649c17.513,0,32.529,11.91,36.518,28.962l18.55,79.326H316.501h-121H56.608
			L60.371,347.625z M306.501,383.719l-0.001,10.792c0,9.548-7.768,17.315-17.315,17.315h-66.369
			c-9.548,0-17.315-7.768-17.315-17.315l0-10.792H306.501z M436.842,463.037C432.853,480.09,417.837,492,400.324,492H111.675
			c-17.513,0-32.529-11.91-36.517-28.962l-18.544-79.319h128.887l-0.001,10.792c0,20.576,16.74,37.315,37.315,37.315h66.369
			c20.576,0,37.315-16.74,37.315-37.315v-10.793h128.896L436.842,463.037z"/>
	</g>
</g>
<g>
	<g>
		<path d="M410.768,335.67c-0.13-0.64-0.319-1.27-0.569-1.87c-0.25-0.6-0.561-1.18-0.92-1.73c-0.36-0.54-0.78-1.06-1.24-1.52
			c-0.46-0.46-0.98-0.88-1.521-1.24c-0.54-0.36-1.13-0.671-1.729-0.921c-0.6-0.25-1.23-0.44-1.87-0.57c-1.29-0.26-2.62-0.26-3.91,0
			c-0.64,0.13-1.26,0.32-1.87,0.57c-0.6,0.25-1.18,0.56-1.72,0.921c-0.55,0.36-1.06,0.78-1.52,1.24c-0.46,0.46-0.88,0.98-1.25,1.52
			c-0.359,0.55-0.67,1.13-0.92,1.73c-0.25,0.6-0.439,1.23-0.569,1.87c-0.13,0.65-0.19,1.3-0.19,1.95c0,0.66,0.061,1.31,0.19,1.96
			c0.13,0.64,0.319,1.27,0.569,1.87c0.25,0.6,0.561,1.18,0.92,1.73c0.37,0.54,0.79,1.06,1.25,1.52c0.46,0.46,0.971,0.88,1.52,1.24
			c0.54,0.36,1.12,0.67,1.72,0.92c0.61,0.25,1.23,0.44,1.87,0.57c0.65,0.13,1.3,0.19,1.96,0.19c0.65,0,1.311-0.06,1.95-0.19
			c0.64-0.13,1.27-0.32,1.87-0.57c0.6-0.25,1.189-0.56,1.729-0.92c0.54-0.36,1.061-0.78,1.521-1.24c0.46-0.46,0.88-0.98,1.24-1.52
			c0.359-0.55,0.67-1.13,0.92-1.73c0.25-0.6,0.439-1.23,0.569-1.87c0.13-0.65,0.2-1.3,0.2-1.96
			C410.968,336.97,410.898,336.32,410.768,335.67z"/>
	</g>
</g>
<g>
</g>
<g>
</g>
<g>
</g>
<g>
</g>
<g>
</g>
<g>
</g>
<g>
</g>
<g>
</g>
<g>
</g>
<g>
</g>
<g>
</g>
<g>
</g>
<g>
</g>
<g>
</g>
<g>
</g>
</svg>
