<?xml version="1.0" encoding="iso-8859-1"?>
<!-- Generator: Adobe Illustrator 19.0.0, SVG Export Plug-In . SVG Version: 6.00 Build 0)  -->
<svg version="1.1" id="Capa_1" xmlns="http://www.w3.org/2000/svg" xmlns:xlink="http://www.w3.org/1999/xlink" x="0px" y="0px"
	 viewBox="0 0 512.004 512.004" style="enable-background:new 0 0 512.004 512.004;" xml:space="preserve">
<g>
	<g>
		<path d="M494.662,465.671l-1.897-1.897l6.622-23.186c7.261-25.477-4.636-52.516-28.325-64.375l-4.033-2.017
			c-3.736-1.865-5.253-6.405-3.389-10.141c0.211-0.423,0.461-0.825,0.747-1.201c8.163-10.885,5.955-26.327-4.93-34.49
			c-3.31-2.482-7.191-4.09-11.287-4.677l-22.908-3.275c-4.572-0.669-7.969-4.579-7.992-9.2
			c0.007-14.558-11.788-26.365-26.346-26.373c-1.745-0.001-3.485,0.172-5.195,0.514l-14.058,2.817l1.675,8.367l-2.6-9.125v-16.567
			c-0.008-9.847-7.986-17.83-17.833-17.842h-18.616c-0.422,0.001-0.766-0.34-0.767-0.763c0-0.001,0-0.003,0-0.004
			c-0.008-9.85-7.991-17.833-17.842-17.842h-40.498l-16.28-26.23c12.295-18.685,18.828-40.57,18.786-62.938
			c0.339-63.473-50.841-115.202-114.314-115.541c-4.918-0.026-9.833,0.263-14.714,0.867L137.67,12.837
			c-7.9-12.737-24.63-16.658-37.366-8.758c-0.253,0.157-0.503,0.318-0.75,0.483L59.955,30.964l-4.227-4.227
			c-7.703-7.87-19.446-10.206-29.575-5.883C15.934,24.959,9.279,34.916,9.395,45.929v438.933
			c0.016,14.983,12.159,27.125,27.142,27.142H475.47c14.99-0.001,27.141-12.155,27.14-27.145
			C502.609,477.662,499.75,470.76,494.662,465.671z M315.687,251.462c0.427,0.002,0.773,0.348,0.775,0.775
			c0.011,9.844,7.989,17.822,17.833,17.833h18.617c0.425,0.003,0.768,0.35,0.767,0.775v16.567c0,9.852,7.988,17.839,17.84,17.839
			c1.176,0,2.349-0.116,3.502-0.347l14.058-2.817c5.038-1.007,9.938,2.261,10.945,7.299c0.12,0.601,0.181,1.213,0.18,1.826
			c0.059,13.1,9.681,24.191,22.642,26.1l22.917,3.275c4.135,0.597,7.004,4.433,6.407,8.569c-0.184,1.272-0.688,2.475-1.465,3.498
			c-8.16,10.88-5.956,26.316,4.925,34.477c1.186,0.889,2.449,1.67,3.775,2.332l4.033,2.017
			c16.344,8.187,24.548,26.846,19.533,44.425l-4.016,14.059L294.502,265.511l-8.72-14.048H315.687z M162.154,46.754
			c54.361,0.061,98.414,44.114,98.475,98.475c0.028,16.296-4.039,32.339-11.827,46.654L158.805,46.887
			C159.929,46.852,160.993,46.754,162.154,46.754z M109.02,18.762c4.636-3.084,10.895-1.827,13.979,2.81
			c0.058,0.088,0.115,0.176,0.171,0.265l13.901,22.396l0.13,0.209l104.346,168.114L72.262,43.271L109.02,18.762z M482.597,491.986
			c-1.89,1.89-4.453,2.952-7.126,2.952H36.537c-5.562-0.004-10.071-4.512-10.075-10.075V45.929
			c-0.057-4.091,2.416-7.794,6.217-9.309c1.284-0.522,2.656-0.793,4.042-0.8c2.625,0.003,5.134,1.081,6.942,2.983l438.933,438.933
			C486.53,481.671,486.531,488.051,482.597,491.986z"/>
	</g>
</g>
<g>
	<g>
		<path d="M90.995,119.312c-3.332-3.332-8.734-3.332-12.067,0l-19.741,19.742c-3.332,3.333-3.331,8.736,0.002,12.068
			c1.6,1.599,3.769,2.498,6.031,2.498v0.001c2.264,0.003,4.435-0.897,6.033-2.5l19.742-19.742
			C94.328,128.047,94.328,122.645,90.995,119.312z"/>
	</g>
</g>
<g>
	<g>
		<path d="M130.47,158.787c-3.332-3.332-8.735-3.332-12.067,0l-65.792,65.8c-3.332,3.333-3.331,8.736,0.002,12.068
			c1.6,1.599,3.769,2.498,6.031,2.498l0,0c2.264,0.003,4.435-0.897,6.033-2.5l65.792-65.8
			C133.803,167.522,133.803,162.119,130.47,158.787z"/>
	</g>
</g>
<g>
	<g>
		<path d="M169.945,198.271c-3.332-3.332-8.735-3.332-12.067,0L52.612,303.546c-3.332,3.333-3.331,8.736,0.002,12.068
			c1.6,1.599,3.769,2.498,6.031,2.498l0,0c2.264,0.003,4.435-0.897,6.033-2.5l105.267-105.275
			C173.277,207.005,173.277,201.603,169.945,198.271z"/>
	</g>
</g>
<g>
	<g>
		<path d="M209.429,237.746c-3.332-3.332-8.735-3.332-12.067,0L65.77,369.337c-3.332,3.33-3.333,8.732-0.003,12.064
			c0.001,0.001,0.002,0.002,0.003,0.003c3.33,3.332,8.732,3.333,12.064,0.003c0.001-0.001,0.002-0.002,0.003-0.003l131.592-131.592
			C212.761,246.48,212.761,241.078,209.429,237.746z"/>
	</g>
</g>
<g>
	<g>
		<path d="M406.812,435.137c-3.332-3.332-8.734-3.332-12.067,0l-19.733,19.733c-3.332,3.333-3.331,8.736,0.002,12.068
			c1.6,1.599,3.769,2.498,6.031,2.498l0,0c2.264,0.003,4.435-0.897,6.033-2.5l19.733-19.733
			C410.144,443.872,410.144,438.469,406.812,435.137z"/>
	</g>
</g>
<g>
	<g>
		<path d="M367.337,395.654c-3.332-3.332-8.735-3.332-12.067,0l-65.792,65.8c-3.332,3.33-3.333,8.732-0.003,12.064
			c0.001,0.001,0.002,0.002,0.003,0.003c3.33,3.332,8.732,3.333,12.064,0.003c0.001-0.001,0.002-0.002,0.003-0.003l65.792-65.8
			C370.67,404.389,370.67,398.986,367.337,395.654z"/>
	</g>
</g>
<g>
	<g>
		<path d="M327.862,356.179c-3.332-3.332-8.735-3.332-12.067,0L210.52,461.454c-3.332,3.33-3.333,8.732-0.003,12.064
			c0.001,0.001,0.002,0.002,0.003,0.003c3.33,3.332,8.732,3.333,12.064,0.003c0.001-0.001,0.002-0.002,0.003-0.003l105.275-105.275
			C331.194,364.914,331.194,359.511,327.862,356.179z"/>
	</g>
</g>
<g>
	<g>
		<path d="M288.379,316.704c-3.332-3.332-8.735-3.332-12.067,0L144.72,448.296c-3.332,3.33-3.333,8.732-0.003,12.064
			c0.001,0.001,0.002,0.002,0.003,0.003c3.33,3.332,8.732,3.333,12.064,0.003c0.001-0.001,0.002-0.002,0.003-0.003l131.592-131.592
			C291.711,325.439,291.711,320.036,288.379,316.704z"/>
	</g>
</g>
<g>
	<g>
		<path d="M248.904,277.221c-3.332-3.332-8.734-3.332-12.067,0L85.504,428.554c-3.332,3.33-3.334,8.732-0.003,12.064
			c0.001,0.001,0.002,0.002,0.003,0.003c3.33,3.332,8.732,3.333,12.064,0.003c0.001-0.001,0.002-0.002,0.003-0.003l151.333-151.333
			C252.236,285.955,252.236,280.553,248.904,277.221z"/>
	</g>
</g>
<g>
</g>
<g>
</g>
<g>
</g>
<g>
</g>
<g>
</g>
<g>
</g>
<g>
</g>
<g>
</g>
<g>
</g>
<g>
</g>
<g>
</g>
<g>
</g>
<g>
</g>
<g>
</g>
<g>
</g>
</svg>
